<?xml version="1.0" encoding="UTF-8"?>
<svg width="21" height="15" viewBox="0 0 21 15" fill="none" xmlns="http://www.w3.org/2000/svg">
    <rect width="21" height="15" fill="#012169"/>
    <path d="M21 0H0V15H21V0Z" fill="#012169"/>
    <path d="M11.662 7.5L21 2.344V0H18.338L9 5.156L-0.338 0H-3V2.344L6.338 7.5L-3 12.656V15H-0.338L9 9.844L18.338 15H21V12.656L11.662 7.5Z" fill="white"/>
    <path d="M13.9 8.75L21 12.969V11.25L15.6 8.125L13.9 8.75ZM9 9.844L9.675 10.781H11.325L12 9.844L11.325 8.906H9.675L9 9.844ZM4.1 8.75L2.4 8.125L-3 11.25V12.969L4.1 8.75ZM21 5.625V2.031L13.9 6.25L15.6 6.875L21 3.75V5.625ZM-3 5.625V3.75L2.4 6.875L4.1 6.25L-3 2.031V5.625Z" fill="#C8102E"/>
    <path d="M7.875 5.156H5.125V0H2.375V5.156H-0.375V7.844H2.375V13H5.125V7.844H7.875V5.156Z" fill="#C8102E"/>
    <path d="M13.125 5.156H15.875V0H18.625V5.156H21.375V7.844H18.625V13H15.875V7.844H13.125V5.156Z" fill="#C8102E"/>
</svg>
